<svg width="173" height="46" viewBox="0 0 173 46" fill="none" xmlns="http://www.w3.org/2000/svg">
<path d="M68.264 34H60.488C58.712 34 57.332 33.508 56.348 32.524C55.388 31.54 54.908 30.172 54.908 28.42V21.22C54.908 19.444 55.388 18.076 56.348 17.116C57.332 16.132 58.712 15.64 60.488 15.64H63.44C65.216 15.64 66.596 16.132 67.58 17.116C68.564 18.076 69.056 19.444 69.056 21.22V25.792C69.056 26.224 68.84 26.44 68.408 26.44H58.76C58.496 26.44 58.364 26.56 58.364 26.8V28.348C58.364 30.1 59.24 30.976 60.992 30.976H68.264C68.696 30.976 68.912 31.192 68.912 31.624V33.424C68.912 33.808 68.696 34 68.264 34ZM58.76 23.992H65.204C65.444 23.992 65.564 23.872 65.564 23.632V21.328C65.564 20.416 65.36 19.756 64.952 19.348C64.544 18.916 63.884 18.7 62.972 18.7H60.992C60.08 18.7 59.42 18.916 59.012 19.348C58.604 19.756 58.4 20.416 58.4 21.328V23.632C58.4 23.872 58.52 23.992 58.76 23.992ZM79.9339 23.956H72.8059C72.3979 23.956 72.1939 23.74 72.1939 23.308V21.724C72.1939 21.292 72.3979 21.076 72.8059 21.076H79.9339C80.3419 21.076 80.5459 21.292 80.5459 21.724V23.308C80.5459 23.74 80.3419 23.956 79.9339 23.956ZM90.6808 34H87.5848C87.2248 34 86.9848 33.796 86.8648 33.388L82.7248 16.252C82.6288 15.844 82.7728 15.64 83.1567 15.64H85.7488C86.1808 15.64 86.4208 15.844 86.4688 16.252L89.0968 29.86H89.3488L92.5168 16.252C92.5888 15.844 92.8168 15.64 93.2008 15.64H95.5768C95.9848 15.64 96.2368 15.844 96.3328 16.252L99.4288 29.86H99.6808L102.309 16.252C102.381 15.844 102.621 15.64 103.029 15.64H105.621C106.029 15.64 106.173 15.844 106.053 16.252L101.913 33.388C101.841 33.796 101.601 34 101.193 34H98.0968C97.7128 34 97.4728 33.796 97.3768 33.388L94.4968 20.032H94.2448L91.4008 33.388C91.3288 33.796 91.0888 34 90.6808 34ZM115.751 34H114.347C112.571 34 111.191 33.508 110.207 32.524C109.247 31.54 108.767 30.172 108.767 28.42V21.22C108.767 19.444 109.247 18.076 110.207 17.116C111.191 16.132 112.571 15.64 114.347 15.64H122.411C122.843 15.64 123.059 15.844 123.059 16.252V33.388C123.059 33.796 122.843 34 122.411 34H120.143C119.735 34 119.531 33.796 119.531 33.388V32.092H119.387C118.811 33.364 117.599 34 115.751 34ZM119.531 27.88V19.06C119.531 18.82 119.399 18.7 119.135 18.7H114.851C113.123 18.7 112.259 19.588 112.259 21.364V28.276C112.259 30.052 113.123 30.94 114.851 30.94H116.579C118.547 30.94 119.531 29.92 119.531 27.88ZM130.609 34H128.341C127.933 34 127.729 33.796 127.729 33.388V9.304C127.729 8.896 127.933 8.692 128.341 8.692H130.609C131.017 8.692 131.221 8.896 131.221 9.304V33.388C131.221 33.796 131.017 34 130.609 34ZM139.012 34H136.744C136.336 34 136.132 33.796 136.132 33.388V9.304C136.132 8.896 136.336 8.692 136.744 8.692H139.012C139.42 8.692 139.624 8.896 139.624 9.304V33.388C139.624 33.796 139.42 34 139.012 34ZM157.35 34H149.574C147.798 34 146.418 33.508 145.434 32.524C144.474 31.54 143.994 30.172 143.994 28.42V21.22C143.994 19.444 144.474 18.076 145.434 17.116C146.418 16.132 147.798 15.64 149.574 15.64H152.526C154.302 15.64 155.682 16.132 156.666 17.116C157.65 18.076 158.142 19.444 158.142 21.22V25.792C158.142 26.224 157.926 26.44 157.494 26.44H147.846C147.582 26.44 147.45 26.56 147.45 26.8V28.348C147.45 30.1 148.326 30.976 150.078 30.976H157.35C157.782 30.976 157.998 31.192 157.998 31.624V33.424C157.998 33.808 157.782 34 157.35 34ZM147.846 23.992H154.29C154.53 23.992 154.65 23.872 154.65 23.632V21.328C154.65 20.416 154.446 19.756 154.038 19.348C153.63 18.916 152.97 18.7 152.058 18.7H150.078C149.166 18.7 148.506 18.916 148.098 19.348C147.69 19.756 147.486 20.416 147.486 21.328V23.632C147.486 23.872 147.606 23.992 147.846 23.992ZM162.648 18.7H160.92C160.68 18.7 160.512 18.664 160.416 18.592C160.344 18.496 160.308 18.34 160.308 18.124V16.252C160.308 15.844 160.512 15.64 160.92 15.64H162.648C162.888 15.64 163.008 15.52 163.008 15.28V12.04C163.008 11.632 163.224 11.428 163.656 11.428H165.924C166.332 11.428 166.536 11.632 166.536 12.04V15.28C166.536 15.52 166.668 15.64 166.932 15.64H170.28C170.712 15.64 170.928 15.844 170.928 16.252V18.124C170.928 18.508 170.712 18.7 170.28 18.7H166.932C166.668 18.7 166.536 18.82 166.536 19.06V28.312C166.536 30.064 167.436 30.94 169.236 30.94H170.64C171.072 30.94 171.288 31.144 171.288 31.552V33.424C171.288 33.808 171.072 34 170.64 34H168.696C166.92 34 165.528 33.52 164.52 32.56C163.512 31.6 163.008 30.244 163.008 28.492V19.06C163.008 18.82 162.888 18.7 162.648 18.7Z" fill="white"/>
<path d="M34.1422 8.85781C30.3647 5.08031 25.3422 3 20 3C14.6578 3 9.63531 5.08031 5.85781 8.85781C2.08031 12.6353 0 17.6578 0 23C0 28.3422 2.08039 33.3646 5.85781 37.1422C9.63523 40.9198 14.6578 43 20 43C25.3422 43 30.3647 40.9197 34.1422 37.1422C37.9197 33.3647 40 28.3422 40 23C40 17.6578 37.9196 12.6354 34.1422 8.85781Z" fill="#33CC95"/>
<g clip-path="url(#clip0)">
<path d="M20.5714 11V36.1429" stroke="white" stroke-width="2" stroke-linecap="round" stroke-linejoin="round"/>
<path d="M26.2857 15.5714H17.7142C16.6534 15.5714 15.636 15.9929 14.8858 16.743C14.1357 17.4932 13.7142 18.5106 13.7142 19.5714C13.7142 20.6323 14.1357 21.6497 14.8858 22.3999C15.636 23.15 16.6534 23.5714 17.7142 23.5714H23.4285C24.4894 23.5714 25.5068 23.9929 26.2569 24.743C27.0071 25.4932 27.4285 26.5106 27.4285 27.5714C27.4285 28.6323 27.0071 29.6497 26.2569 30.3999C25.5068 31.15 24.4894 31.5714 23.4285 31.5714H13.7142" stroke="white" stroke-width="2" stroke-linecap="round" stroke-linejoin="round"/>
</g>
<defs>
<clipPath id="clip0">
<rect width="27.4286" height="27.4286" fill="white" transform="translate(6.85712 9.85715)"/>
</clipPath>
</defs>
</svg>
